<?xml version="1.0" encoding="UTF-8" standalone="no"?>
<svg
   viewBox="0 0 24 24"
   width="192px"
   height="192px"
   version="1.1"
   id="svg1"
   sodipodi:docname="icons8-search.svg"
   inkscape:version="1.3.2 (091e20e, 2023-11-25, custom)"
   xmlns:inkscape="http://www.inkscape.org/namespaces/inkscape"
   xmlns:sodipodi="http://sodipodi.sourceforge.net/DTD/sodipodi-0.dtd"
   xmlns="http://www.w3.org/2000/svg"
   xmlns:svg="http://www.w3.org/2000/svg">
  <defs
     id="defs1" />
  <sodipodi:namedview
     id="namedview1"
     pagecolor="#7e7e7e"
     bordercolor="#000000"
     borderopacity="0.25"
     inkscape:showpageshadow="2"
     inkscape:pageopacity="0.0"
     inkscape:pagecheckerboard="0"
     inkscape:deskcolor="#d1d1d1"
     inkscape:zoom="2.0677083"
     inkscape:cx="96"
     inkscape:cy="96"
     inkscape:window-width="1366"
     inkscape:window-height="697"
     inkscape:window-x="-8"
     inkscape:window-y="-8"
     inkscape:window-maximized="1"
     inkscape:current-layer="svg1" />
  <path
     style="fill:#ffffff;stroke-width:5.80353;stroke-linecap:round;stroke-linejoin:round;fill-opacity:1"
     d="m 161.04786,175.08797 c -1.06398,-0.39919 -2.03365,-0.72908 -2.15483,-0.73308 -0.12118,-0.004 -10.62193,-10.39402 -23.33501,-23.08892 l -23.1147,-23.08163 v -5.35422 -5.35422 l -1.86385,-1.82001 -1.86386,-1.82 -3.57695,2.69735 C 94.162947,124.80997 79.732319,128.89196 66.568823,127.44348 53.534385,126.0092 41.98059,120.47795 32.843695,111.29795 24.010355,102.42293 18.713407,92.072826 16.921862,80.187073 16.024063,74.230759 16.018259,69.928494 16.900131,64.078594 18.675732,52.300132 23.585414,42.340976 31.871078,33.710436 c 4.901332,-5.105342 8.967137,-8.175597 14.798947,-11.175289 22.196511,-11.417157 48.41147,-6.89255 65.736135,11.345818 8.4036,8.846801 13.67476,20.30516 15.03732,32.687858 1.44848,13.163496 -2.63351,27.594124 -10.91024,38.569837 l -2.69735,3.57695 1.82,1.86386 1.82001,1.86385 h 5.34953 5.34953 l 22.79405,22.85139 c 12.53672,12.56826 23.19027,23.6131 23.67456,24.54408 0.58336,1.12145 0.88601,2.76638 0.89681,4.8742 0.0139,2.71352 -0.19901,3.52974 -1.44737,5.54892 -2.75188,4.45107 -8.43792,6.55462 -13.04515,4.82606 z m -81.007558,-63.7044 c 9.627456,-1.82686 18.344933,-7.38798 24.493968,-15.625384 6.93667,-9.292524 9.33413,-22.551396 6.23779,-34.497441 C 107.27652,47.774524 96.234719,36.872819 82.216625,33.067616 77.064007,31.668941 67.387812,31.561713 62.387909,32.84788 40.413955,38.50043 27.52265,60.296857 33.146752,82.28839 c 1.862642,7.283363 5.36867,13.249519 10.928842,18.59745 9.749702,9.37755 22.403448,13.07105 35.964708,10.49773 z"
     id="path2"
     transform="scale(0.125)" />
</svg>
