<?xml version="1.0" encoding="utf-8"?>
<!-- Svg Vector Icons : http://www.onlinewebfonts.com/icon -->
<!DOCTYPE svg PUBLIC "-//W3C//DTD SVG 1.1//EN" "http://www.w3.org/Graphics/SVG/1.1/DTD/svg11.dtd">
<svg version="1.1" xmlns="http://www.w3.org/2000/svg" xmlns:xlink="http://www.w3.org/1999/xlink" x="0px" y="0px" viewBox="0 0 256 256" enable-background="new 0 0 256 256" xml:space="preserve">
<metadata> Svg Vector Icons : http://www.onlinewebfonts.com/icon </metadata>
<g><g><path fill="#000000" d="M127.9,246l-5.7-7.1c-7.5-9.3-27.5-34-45.8-61.5c-10.4-15.6-18.5-29.7-24.3-42c-7.4-15.7-11-28.2-11-38.5c0-11.7,2.3-23,6.9-33.7C52.3,53,58.6,43.7,66.6,35.6c8-8,17.3-14.3,27.6-18.7C105,12.3,116.4,10,128,10c23.4,0,45.3,9.1,61.7,25.6c7.9,8,14.2,17.3,18.5,27.7c4.5,10.7,6.8,22,6.8,33.7c0,10.3-3.6,23-11.2,38.9c-5.9,12.5-14.2,26.7-24.6,42.5c-21.1,31.9-43.3,58.2-45.8,61.1L127.9,246z M128,24.3c-9.7,0-19.2,1.9-28.1,5.8c-8.6,3.7-16.4,9-23.1,15.7s-12,14.5-15.7,23.1c-3.8,8.9-5.8,18.4-5.8,28.1c0,13.3,9.6,47.4,72.8,126.5c9.9-12.2,25.4-32.2,39.2-53.1c27.6-41.6,33.4-62.9,33.4-73.5c0-19.3-7.5-37.5-21.1-51.3C165.8,31.9,147.5,24.3,128,24.3z"/><path fill="#000000" d="M128,135.8c-20.3,0-36.8-16.5-36.8-36.8c0-20.3,16.5-36.8,36.8-36.8c20.3,0,36.8,16.5,36.8,36.8C164.8,119.2,148.3,135.8,128,135.8z M128,76.4c-12.4,0-22.5,10.1-22.5,22.5c0,12.4,10.1,22.5,22.5,22.5c12.4,0,22.5-10.1,22.5-22.5C150.5,86.5,140.4,76.4,128,76.4z"/></g></g>
</svg>