<?xml version="1.0" encoding="UTF-8" standalone="no"?>
<!-- Uploaded to: SVG Repo, www.svgrepo.com, Generator: SVG Repo Mixer Tools -->

<svg
   width="800px"
   height="800px"
   viewBox="0 0 24 24"
   fill="none"
   version="1.1"
   id="svg3"
   sodipodi:docname="rain-svgrepo-com.svg"
   inkscape:version="1.3.2 (091e20e, 2023-11-25, custom)"
   xmlns:inkscape="http://www.inkscape.org/namespaces/inkscape"
   xmlns:sodipodi="http://sodipodi.sourceforge.net/DTD/sodipodi-0.dtd"
   xmlns="http://www.w3.org/2000/svg"
   xmlns:svg="http://www.w3.org/2000/svg">
  <defs
     id="defs3" />
  <sodipodi:namedview
     id="namedview3"
     pagecolor="#ffffff"
     bordercolor="#000000"
     borderopacity="0.25"
     inkscape:showpageshadow="2"
     inkscape:pageopacity="0.0"
     inkscape:pagecheckerboard="0"
     inkscape:deskcolor="#d1d1d1"
     inkscape:zoom="0.17545087"
     inkscape:cx="424.62029"
     inkscape:cy="-179.53744"
     inkscape:window-width="1366"
     inkscape:window-height="697"
     inkscape:window-x="-8"
     inkscape:window-y="-8"
     inkscape:window-maximized="1"
     inkscape:current-layer="svg3" />
  <g
     id="g3"
     style="fill:#3fa2ff;fill-opacity:1">
    <path
       fill-rule="evenodd"
       clip-rule="evenodd"
       d="M 5.99993,1 C 5.65276,1 5.36339,1.17976 5.16152,1.45177 5.09068,1.5478 4.92673,1.77255 4.709,2.08705 4.41942,2.50534 4.03176,3.08669 3.64247,3.73551 3.25505,4.38123 2.85535,5.11139 2.54959,5.82484 2.25681,6.50802 1.99893,7.24994 2,8.00206 2.00062,8.21313 2.02582,8.42526 2.06046,8.63311 2.11824,8.97986 2.23566,9.45747 2.48051,9.94719 2.72731,10.4408 3.11323,10.9649 3.71085,11.3633 4.31472,11.7659 5.07494,12 5.99994,12 6.92494,12 7.68516,11.7659 8.28904,11.3633 8.88666,10.9649 9.2726,10.4409 9.51942,9.94722 9.76428,9.45751 9.88173,8.9799 9.93952,8.63315 9.9742,8.42505 9.99972,8.21239 10,8.00101 10.0004,7.24888 9.74323,6.50811 9.45038,5.82482 9.14461,5.11137 8.7449,4.38121 8.35746,3.7355 7.96816,3.08668 7.58048,2.50533 7.29089,2.08703 7.07315,1.77254 6.9092,1.54779 6.83835,1.45175 6.63647,1.17975 6.3471,0.999997 5.99993,1 Z"
       fill="#0f0f0f"
       id="path1"
       sodipodi:nodetypes="cccccccccsccscccccc"
       style="fill:#3fa2ff;fill-opacity:1" />
    <path
       fill-rule="evenodd"
       clip-rule="evenodd"
       d="M 17.9999,1 C 17.6528,1 17.3634,1.17976 17.1615,1.45177 17.0907,1.5478 16.9267,1.77255 16.709,2.08705 16.4194,2.50534 16.0318,3.08669 15.6425,3.73551 15.2551,4.38123 14.8554,5.11139 14.5496,5.82484 14.2568,6.50802 13.9989,7.24994 14,8.00206 c 6e-4,0.21107 0.0258,0.4232 0.0605,0.63105 0.0577,0.34675 0.1752,0.82436 0.42,1.31408 0.2468,0.49361 0.6327,1.01771 1.2303,1.41611 0.6039,0.4026 1.3641,0.6367 2.2891,0.6367 0.925,0 1.6853,-0.2341 2.2891,-0.6367 0.5977,-0.3984 0.9836,-0.9224 1.2304,-1.41608 C 21.7643,9.45751 21.8817,8.9799 21.9395,8.63315 21.9742,8.42505 21.9997,8.21239 22,8.00101 22.0004,7.24888 21.7432,6.50811 21.4504,5.82482 21.1446,5.11137 20.7449,4.38121 20.3575,3.7355 19.9682,3.08668 19.5805,2.50533 19.2909,2.08703 19.0732,1.77254 18.9092,1.54779 18.8384,1.45175 18.6365,1.17975 18.3471,0.999997 17.9999,1 Z"
       fill="#0f0f0f"
       id="path2"
       style="stroke:none;stroke-opacity:1;fill:#3fa2ff;fill-opacity:1"
       sodipodi:nodetypes="scccccccssccccccccs" />
    <path
       fill-rule="evenodd"
       clip-rule="evenodd"
       d="M 11.1615,12.4518 C 11.3634,12.1798 11.6528,12 11.9999,12 c 0.3472,0 0.6366,0.1797 0.8385,0.4518 0.0708,0.096 0.2348,0.3207 0.4525,0.6352 0.2896,0.4183 0.6773,0.9997 1.0666,1.6485 0.3874,0.6457 0.7871,1.3759 1.0929,2.0893 0.2928,0.6833 0.55,1.4241 0.5496,2.1762 -3e-4,0.2114 -0.0258,0.4241 -0.0605,0.6322 -0.0578,0.3467 -0.1752,0.8243 -0.4201,1.314 -0.2468,0.4937 -0.6327,1.0177 -1.2304,1.4161 C 13.6852,22.7659 12.9249,23 11.9999,23 11.0749,23 10.3147,22.7659 9.71085,22.3633 9.11323,21.9649 8.72731,21.4408 8.48051,20.9472 8.23566,20.4575 8.11824,19.9799 8.06046,19.6331 8.02582,19.4253 8.00062,19.2131 8,19.0021 7.99893,18.2499 8.25681,17.508 8.54959,16.8248 8.85535,16.1114 9.25505,15.3812 9.64247,14.7355 10.0318,14.0867 10.4194,13.5053 10.709,13.087 c 0.2177,-0.3144 0.3817,-0.5392 0.4525,-0.6352 z"
       fill="#0f0f0f"
       id="path3"
       sodipodi:nodetypes="csccccccccscscccccc"
       style="fill:#3fa2ff;fill-opacity:1" />
  </g>
</svg>
