<?xml version="1.0" encoding="UTF-8" standalone="no"?>
<!-- Created with Inkscape (http://www.inkscape.org/) -->

<svg
   width="1000"
   height="1000"
   viewBox="0 0 264.58333 264.58333"
   version="1.1"
   id="svg1"
   xml:space="preserve"
   inkscape:version="1.2.2 (b0a8486541, 2022-12-01)"
   sodipodi:docname="sun.svg"
   xmlns:inkscape="http://www.inkscape.org/namespaces/inkscape"
   xmlns:sodipodi="http://sodipodi.sourceforge.net/DTD/sodipodi-0.dtd"
   xmlns:xlink="http://www.w3.org/1999/xlink"
   xmlns="http://www.w3.org/2000/svg"
   xmlns:svg="http://www.w3.org/2000/svg"><sodipodi:namedview
     id="namedview1"
     pagecolor="#ffffff"
     bordercolor="#000000"
     borderopacity="0.25"
     inkscape:showpageshadow="2"
     inkscape:pageopacity="0.0"
     inkscape:pagecheckerboard="0"
     inkscape:deskcolor="#d1d1d1"
     inkscape:document-units="mm"
     showgrid="false"
     inkscape:zoom="0.5"
     inkscape:cx="233"
     inkscape:cy="502"
     inkscape:window-width="1920"
     inkscape:window-height="986"
     inkscape:window-x="-11"
     inkscape:window-y="-11"
     inkscape:window-maximized="1"
     inkscape:current-layer="layer1"><inkscape:grid
       id="grid1"
       units="mm"
       originx="0"
       originy="0"
       spacingx="0.99999999"
       spacingy="0.99999999"
       empcolor="#0099e5"
       empopacity="0.30196078"
       color="#0099e5"
       opacity="0.14901961"
       empspacing="5"
       dotted="false"
       gridanglex="30"
       gridanglez="30"
       visible="false" /></sodipodi:namedview><defs
     id="defs1"><linearGradient
       inkscape:collect="always"
       id="linearGradient12603"><stop
         style="stop-color:#f2fc1f;stop-opacity:1;"
         offset="0"
         id="stop12599" /><stop
         style="stop-color:#fde139;stop-opacity:1;"
         offset="1"
         id="stop12601" /></linearGradient><radialGradient
       inkscape:collect="always"
       xlink:href="#linearGradient12603"
       id="radialGradient12605"
       cx="132.55627"
       cy="132.82082"
       fx="132.55627"
       fy="132.82082"
       r="73.818748"
       gradientUnits="userSpaceOnUse" /></defs><g
     inkscape:label="Camada 1"
     inkscape:groupmode="layer"
     id="layer1"><path
       style="fill:#fde139;fill-opacity:1;stroke-width:0.158125"
       d="m 130.2962,263.54569 c -1.35639,-0.36528 -3.12076,-1.69619 -3.98985,-3.00964 -0.26265,-0.39694 -0.61275,-1.13869 -0.77801,-1.6483 -0.28547,-0.88039 -0.30044,-1.83496 -0.30044,-19.14921 v -18.22263 l 0.364,-0.98983 c 0.84351,-2.29377 2.15869,-3.51653 4.72329,-4.39141 1.35102,-0.46087 2.11175,-0.50841 3.12399,-0.19514 0.38157,0.11809 0.91234,0.26105 1.1795,0.31771 1.26124,0.26752 3.25988,1.95471 3.88695,3.28127 0.23306,0.49302 0.50145,1.03138 0.59643,1.19636 0.11742,0.20393 0.19505,4.92532 0.24249,14.74797 0.0651,13.48048 -0.0746,22.64265 -0.36161,23.70254 -0.23085,0.85278 -1.4425,2.42373 -2.42584,3.14521 -1.50655,1.10537 -2.10107,1.31606 -3.8656,1.36995 -1.02499,0.0313 -1.91852,-0.0264 -2.3953,-0.15485 z M 51.472689,238.98063 c -1.346097,-0.91088 -2.376162,-2.07625 -2.879094,-3.25724 -0.474207,-1.11356 -0.538448,-1.6964 -0.364124,-3.30351 0.21213,-1.95563 0.455689,-2.34861 5.513831,-8.89639 1.751162,-2.26688 3.187532,-4.14497 5.706827,-7.46182 0.689078,-0.90722 1.690897,-2.21778 2.22626,-2.91234 0.535359,-0.69456 0.973381,-1.33955 0.973381,-1.43332 0,-0.0938 0.109294,-0.21047 0.242868,-0.25936 0.133575,-0.0489 0.242863,-0.1431 0.242863,-0.20934 0,-0.10805 2.58536,-3.49676 4.183284,-5.48317 0.341623,-0.42467 1.066433,-1.39758 1.610682,-2.162 1.564218,-2.19702 2.465751,-3.1742 3.591762,-3.89319 1.392237,-0.88897 1.975933,-1.01694 4.304045,-0.9436 1.76414,0.0556 2.022778,0.10142 2.696436,0.47798 1.158143,0.64735 2.457611,1.86633 3.121514,2.92814 l 0.604851,0.96738 0.08594,2.17699 0.08594,2.17698 -0.698124,0.98881 c -0.38397,0.54386 -1.414615,1.90831 -2.29033,3.03217 -0.875722,1.12384 -2.106425,2.77287 -2.734901,3.6645 -0.628478,0.89164 -1.215185,1.66389 -1.303794,1.71612 -0.254586,0.15007 -1.599785,1.9618 -1.599785,2.1546 0,0.0957 -0.190265,0.3423 -0.422809,0.54822 -0.232544,0.20591 -0.720906,0.79134 -1.085244,1.30095 -0.364345,0.50962 -1.394471,1.85459 -2.28918,2.98881 -0.89471,1.13424 -1.772462,2.28952 -1.950569,2.5673 -0.178099,0.27781 -0.469537,0.68945 -0.647637,0.91478 -0.803983,1.01723 -2.620689,3.39149 -4.855681,6.34598 -2.616539,3.45883 -3.710626,4.64595 -5.099614,5.53323 l -0.888345,0.56746 -2.430809,-0.005 -2.430808,-0.005 -1.219627,-0.8253 z m 154.979441,0.36998 c -0.99417,-0.43028 -2.76835,-2.12443 -4.11971,-3.93378 -0.63529,-0.85064 -1.88676,-2.49015 -2.78103,-3.64338 -0.89427,-1.15324 -2.02667,-2.63812 -2.51644,-3.29974 -0.48979,-0.66162 -1.73013,-2.2893 -2.75632,-3.61708 -1.02621,-1.32779 -2.19196,-2.85137 -2.59057,-3.38573 -0.3986,-0.53439 -1.10685,-1.4378 -1.57386,-2.00759 -0.46703,-0.56979 -0.84954,-1.09556 -0.85002,-1.16837 0,-0.0729 -0.4978,-0.76777 -1.10511,-1.54429 -0.6073,-0.77655 -1.74878,-2.24582 -2.53661,-3.26505 -0.78784,-1.01923 -1.81122,-2.34238 -2.27416,-2.94033 -0.46296,-0.59793 -0.96177,-1.29287 -1.10842,-1.54429 -0.14668,-0.25141 -0.33017,-0.56135 -0.40777,-0.68875 -0.0776,-0.12741 -0.2115,-0.40539 -0.29754,-0.61772 -0.086,-0.21235 -0.25505,-0.6293 -0.37552,-0.92658 -0.50786,-1.25302 -0.0548,-3.71026 0.94068,-5.10144 0.60069,-0.83954 2.05894,-2.18225 2.7204,-2.50491 0.50535,-0.24652 3.02136,-0.88724 3.484,-0.88724 0.15096,0 0.48317,0.1038 0.73824,0.23067 0.25508,0.1269 0.64591,0.23265 0.86854,0.23505 0.58791,0.006 1.57773,0.47744 2.5493,1.2134 0.83282,0.63087 3.65007,4.07314 5.31982,6.50005 0.43619,0.63397 0.9045,1.26146 1.0407,1.39444 0.13621,0.13296 0.49465,0.56979 0.79653,0.97073 0.30188,0.40093 0.60939,0.72897 0.68332,0.72897 0.0739,0 0.13448,0.13049 0.13448,0.28996 0,0.15947 0.1154,0.38131 0.25648,0.49297 0.14107,0.11167 0.96585,1.1452 1.83286,2.29675 0.86701,1.15152 2.37271,3.12421 3.34601,4.38373 0.9733,1.2595 1.84249,2.40593 1.93154,2.54757 0.089,0.14164 0.36227,0.48605 0.60717,0.76532 0.24488,0.27928 0.44524,0.57214 0.44524,0.65081 0,0.0787 0.13688,0.26736 0.30419,0.41931 0.16729,0.15195 1.12897,1.38815 2.13706,2.74713 1.00808,1.35898 2.29191,3.04608 2.85296,3.74914 1.1371,1.42489 1.9086,2.77487 2.07799,3.6361 0.0619,0.31419 0.17695,0.60935 0.25593,0.6559 0.26861,0.15833 0.14466,1.31268 -0.27319,2.54381 -0.69317,2.04233 -1.55965,3.06065 -3.85598,4.53174 -0.60571,0.38803 -0.71702,0.40332 -2.91437,0.40004 -1.92142,-0.003 -2.39627,-0.0517 -2.98682,-0.30732 z M 129.19291,201.1587 c -0.0455,-0.0453 -0.66483,-0.0978 -1.37624,-0.11675 -0.71141,-0.0189 -1.47564,-0.0899 -1.69826,-0.15766 -0.22262,-0.0677 -1.70041,-0.19885 -3.28395,-0.29129 -2.11861,-0.12367 -3.29481,-0.27202 -4.45254,-0.5616 -0.86533,-0.21645 -2.34426,-0.52311 -3.28652,-0.68144 -0.94224,-0.15835 -1.92584,-0.38769 -2.18578,-0.50966 -0.25993,-0.12196 -1.12833,-0.37897 -1.92979,-0.57111 -2.55452,-0.61243 -2.89662,-0.71622 -2.96013,-0.89792 -0.0342,-0.0978 -0.23396,-0.17794 -0.44392,-0.17794 -0.20994,0 -0.42121,-0.0609 -0.46947,-0.13543 -0.0483,-0.0744 -0.43508,-0.21789 -0.85959,-0.31865 -0.71373,-0.16943 -5.92497,-2.36826 -7.41012,-3.12665 -0.356208,-0.18189 -1.266958,-0.64387 -2.02387,-1.0266 -0.756943,-0.38274 -1.740539,-0.9494 -2.185791,-1.25923 -0.445252,-0.30982 -0.936867,-0.60847 -1.092477,-0.66361 -0.892831,-0.31644 -5.8809,-3.79363 -8.460172,-5.89757 -3.738819,-3.04979 -7.096709,-6.36959 -10.313118,-10.19612 -1.144718,-1.36186 -3.546765,-4.70978 -5.04135,-7.02652 -1.323473,-2.0515 -4.155673,-7.31103 -4.155673,-7.71729 0,-0.15135 -0.109288,-0.36172 -0.242862,-0.46746 -0.133574,-0.10573 -0.242868,-0.28234 -0.242868,-0.39246 0,-0.11013 -0.102495,-0.39695 -0.227746,-0.63743 -0.350227,-0.67229 -1.232221,-2.88567 -1.230753,-3.08858 6.13e-4,-0.0993 -0.102327,-0.37724 -0.228995,-0.61771 -0.126665,-0.24045 -0.354449,-0.85415 -0.506187,-1.36377 -0.15173,-0.50961 -0.440243,-1.41302 -0.641132,-2.00757 -0.200895,-0.59455 -0.487181,-1.63695 -0.636194,-2.31643 -0.149015,-0.67949 -0.375335,-1.54816 -0.502937,-1.93037 -0.209848,-0.62856 -0.3744,-1.52499 -0.892947,-4.86451 -0.09232,-0.59456 -0.249698,-1.28949 -0.349732,-1.5443 -0.254379,-0.64796 -0.366071,-14.39524 -0.130485,-16.06062 0.09611,-0.67949 0.241791,-1.70969 0.323712,-2.28935 0.08192,-0.57964 0.220495,-1.27457 0.307942,-1.54428 0.08744,-0.26971 0.237121,-1.08108 0.332627,-1.80303 0.0955,-0.72196 0.278771,-1.62537 0.40726,-2.00758 0.128496,-0.38221 0.353177,-1.25087 0.499296,-1.93036 0.146114,-0.67949 0.405046,-1.58291 0.575392,-2.00759 0.170353,-0.42467 0.37574,-1.08486 0.456424,-1.46707 0.168719,-0.7993 0.439632,-1.58572 0.762371,-2.21313 0.123692,-0.24046 0.224895,-0.52416 0.224895,-0.63045 0,-0.1063 0.327868,-0.95006 0.728598,-1.87503 0.400725,-0.92496 0.728591,-1.76201 0.728591,-1.86011 0,-0.0981 0.109294,-0.26486 0.242868,-0.37059 0.133574,-0.10573 0.242862,-0.31329 0.242862,-0.46123 0,-0.51565 3.935961,-7.600075 5.245525,-9.441539 3.0733,-4.321566 3.762892,-5.188612 6.37142,-8.011013 2.728116,-2.95179 7.377083,-7.214722 9.852187,-9.034099 3.144289,-2.311294 6.665871,-4.5971 8.403212,-5.454398 0.267143,-0.131828 0.850014,-0.45856 1.295266,-0.726061 1.458781,-0.876403 6.862121,-3.288217 9.228861,-4.119349 2.51325,-0.882572 5.99466,-1.969924 6.31895,-1.973595 0.18054,-0.0018 0.48967,-0.111545 0.68695,-0.243338 0.19728,-0.131798 1.21119,-0.376513 2.25317,-0.543816 1.04196,-0.167302 2.5543,-0.473892 3.36078,-0.681316 0.96586,-0.24841 2.29522,-0.431944 3.89497,-0.537734 1.33575,-0.08833 3.07124,-0.240379 3.85663,-0.337892 3.38852,-0.420692 16.87699,0.200116 19.37743,0.891852 0.48978,0.135493 1.82548,0.408848 2.96821,0.607459 1.14274,0.198605 2.16277,0.426819 2.26674,0.507133 0.104,0.08032 0.6262,0.230992 1.16049,0.334827 0.5343,0.103834 1.15362,0.275772 1.37624,0.382082 0.22262,0.106314 0.78135,0.277692 1.24161,0.380837 0.46026,0.103146 0.97029,0.283991 1.13337,0.40188 0.16309,0.117895 0.45617,0.216558 0.65128,0.219261 0.1951,0.003 0.39423,0.06585 0.4425,0.140343 0.0483,0.07449 0.43508,0.217878 0.85958,0.318636 0.4245,0.100765 2.08329,0.760387 3.6862,1.465833 1.6029,0.705446 3.09652,1.334699 3.31916,1.398348 0.22262,0.06365 0.51406,0.20394 0.64763,0.311761 0.13357,0.107821 0.68003,0.412905 1.21433,0.677973 1.68452,0.835685 6.87098,3.954065 7.71041,4.635902 0.32249,0.261962 0.63798,0.476296 0.7011,0.476296 0.063,0 0.41854,0.241429 0.78986,0.536509 4.03784,3.208784 5.19376,4.160801 6.5324,5.380051 1.77832,1.619739 4.93338,4.950808 6.9627,7.351153 1.84138,2.178013 5.15011,6.972497 6.54777,9.487915 0.62044,1.116636 1.19179,2.134479 1.26966,2.261889 0.32565,0.53285 1.3014,2.6727 1.3014,2.85406 0,0.10819 0.10929,0.28322 0.24286,0.38895 0.13358,0.10574 0.24286,0.34897 0.24286,0.5405 0,0.19154 0.1093,0.43476 0.24286,0.54051 0.13357,0.10573 0.24287,0.28956 0.24287,0.4085 0,0.22966 0.83716,2.30592 1.22578,3.04006 0.12727,0.24045 0.23141,0.5626 0.23141,0.71589 0,0.15327 0.10884,0.47773 0.24185,0.72101 0.13305,0.24329 0.24234,0.56965 0.24288,0.72526 0,0.1556 0.1807,0.78104 0.40035,1.38986 0.46597,1.29158 1.33171,4.80107 1.56831,6.35753 0.0904,0.59455 0.26506,1.42847 0.38819,1.85315 0.21316,0.73523 0.5375,4.01375 0.87675,8.86246 0.21088,3.01416 -0.3409,11.56327 -0.87824,13.60697 -0.12282,0.46715 -0.29705,1.33581 -0.38718,1.93037 -0.23549,1.55366 -1.10122,5.06417 -1.56783,6.35752 -0.21965,0.60883 -0.3998,1.23426 -0.40035,1.38987 0,0.1556 -0.10983,0.48197 -0.24288,0.72525 -0.13301,0.24329 -0.24185,0.56775 -0.24185,0.72102 0,0.15329 -0.10191,0.47543 -0.22655,0.71589 -0.12459,0.24045 -0.45656,1.02788 -0.73772,1.74984 -0.28118,0.72196 -0.58041,1.41689 -0.66499,1.54429 -0.1706,0.25692 -0.19169,0.30371 -0.73086,1.6215 -0.42319,1.03432 -2.51175,4.97686 -3.51779,6.64046 -4.19055,6.9296 -10.36651,13.81218 -17.25691,19.23137 -1.10308,0.86756 -2.26794,1.74717 -2.58858,1.95472 -0.32065,0.20753 -0.70575,0.49433 -0.85577,0.63731 -0.36923,0.35189 -4.63944,2.90353 -6.93618,4.1447 -1.84818,0.99876 -4.82053,2.36964 -5.13791,2.36964 -0.091,0 -0.25285,0.10041 -0.35966,0.22317 -0.1068,0.12276 -0.5711,0.34084 -1.03176,0.48465 -0.46066,0.14381 -1.19603,0.43275 -1.63415,0.64206 -0.9924,0.4742 -7.03314,2.38381 -9.13518,2.88787 -0.86011,0.20623 -1.96457,0.42197 -2.45435,0.47941 -0.48977,0.0574 -1.13,0.19847 -1.42271,0.31342 -1.30832,0.51383 -7.80908,1.1176 -13.47299,1.25134 -1.91459,0.0452 -3.51831,0.0452 -3.56381,-1.2e-4 z M 4.4879001,176.8551 c -1.1478465,-0.64907 -2.4845499,-1.75422 -2.8578958,-2.36284 -1.11829517,-1.82302 -1.19593857,-2.04148 -1.27562014,-3.58889 -0.0759386,-1.47486 -0.0661462,-1.5268 0.50347638,-2.67086 0.63873376,-1.28284 2.01824816,-2.79552 3.10207896,-3.40152 0.3575773,-0.19993 1.8511947,-0.74523 3.3191546,-1.21179 1.4679526,-0.46655 2.9968789,-0.95527 3.3976039,-1.08606 1.44451,-0.47142 5.27373,-1.59676 5.799187,-1.70428 0.295415,-0.0605 0.732569,-0.20717 0.971459,-0.32604 0.238891,-0.11888 0.543639,-0.21638 0.677214,-0.21665 0.133574,0 0.680021,-0.16932 1.214321,-0.37565 0.534305,-0.20631 1.845772,-0.62879 2.914377,-0.93882 1.068606,-0.31002 2.270786,-0.69119 2.671517,-0.84705 0.400724,-0.15587 1.129322,-0.38699 1.619096,-0.51361 0.489776,-0.12662 2.056258,-0.61875 3.481063,-1.09362 1.424805,-0.47485 2.782002,-0.86386 3.015985,-0.86444 0.233988,0 0.516131,-0.10531 0.62699,-0.23271 0.110853,-0.12741 0.362907,-0.23165 0.560105,-0.23165 0.197205,0 1.445103,-0.35224 2.773121,-0.78277 3.009841,-0.97574 4.443146,-1.19708 6.13097,-0.94681 1.43609,0.21295 1.774267,0.36384 3.083812,1.37589 1.093536,0.84512 1.848613,1.93461 2.363434,3.41016 0.505814,1.44974 0.474855,2.64532 -0.1072,4.13975 -0.40425,1.03793 -0.644492,1.38406 -1.608589,2.31759 -1.159406,1.12263 -2.200779,1.75951 -2.876983,1.75951 -0.209156,0 -0.521712,0.10204 -0.694568,0.22673 -0.17286,0.12471 -0.496438,0.23115 -0.719063,0.23656 -0.222625,0.005 -0.546208,0.11186 -0.719063,0.23655 -0.172856,0.1247 -0.437014,0.22674 -0.587012,0.22674 -0.150006,0 -0.664307,0.16476 -1.142902,0.36613 -0.4786,0.20136 -1.125186,0.4141 -1.436859,0.47273 -0.726059,0.13659 -6.464123,1.87524 -7.528811,2.28125 -0.445251,0.1698 -0.991697,0.36395 -1.214322,0.43143 -1.756025,0.53237 -3.725354,1.09431 -4.128704,1.17816 -0.267151,0.0555 -0.696012,0.20211 -0.953035,0.32576 -0.257016,0.12364 -2.078501,0.69728 -4.047745,1.27477 -5.400005,1.58353 -5.493889,1.61252 -8.275829,2.55523 l -2.5905571,0.87787 -2.3476937,0.0678 c -2.3387851,0.0676 -2.3505958,0.0662 -3.1125131,-0.36462 z m 250.5358299,0.17966 c -0.56505,-0.11697 -1.13103,-0.29475 -1.25776,-0.39505 -0.12671,-0.10031 -0.50229,-0.2356 -0.8346,-0.30064 -0.3323,-0.065 -1.00493,-0.26546 -1.49471,-0.4454 -0.48977,-0.17993 -1.32766,-0.43339 -1.86196,-0.56326 -1.13022,-0.27473 -7.07889,-2.09197 -10.36223,-3.16552 -1.2467,-0.40763 -2.77676,-0.8769 -3.40011,-1.04282 -0.62335,-0.16592 -1.49767,-0.44053 -1.94291,-0.61022 -1.10739,-0.42206 -1.74399,-0.62086 -3.11496,-0.97273 -0.64461,-0.16543 -1.40964,-0.39854 -1.70006,-0.51803 -0.2904,-0.11946 -0.96517,-0.32802 -1.49947,-0.46346 -0.53431,-0.13542 -1.29933,-0.35385 -1.70006,-0.48537 -3.9461,-1.29525 -4.91105,-1.59183 -5.47472,-1.68266 -0.35887,-0.0579 -0.69234,-0.20419 -0.74105,-0.32526 -0.0486,-0.12106 -0.22688,-0.22011 -0.39596,-0.22011 -0.34841,0 -2.62274,-2.19793 -3.00621,-2.9052 -0.13712,-0.25291 -0.29776,-0.76246 -0.35698,-1.13235 -0.0592,-0.3699 -0.16742,-0.74548 -0.24041,-0.83463 -0.29629,-0.36193 -0.33889,-1.40068 -0.0815,-1.9882 0.14213,-0.32447 0.26003,-0.73782 0.26199,-0.91854 0.0108,-0.98382 1.522,-2.95706 2.96313,-3.86868 1.37006,-0.86664 2.52043,-1.09355 4.551,-0.89766 1.66366,0.16049 2.64523,0.4132 5.92083,1.5244 0.84598,0.28697 2.37602,0.7592 3.40012,1.04937 1.02407,0.29018 2.50822,0.74434 3.29807,1.00925 0.78989,0.26492 1.9192,0.58757 2.50961,0.71702 0.59042,0.12945 1.30127,0.36232 1.57969,0.51752 0.27841,0.1552 0.75201,0.32838 1.05242,0.38485 0.30041,0.0564 0.69192,0.16004 0.87001,0.23018 0.17811,0.0701 1.52601,0.49041 2.99534,0.93394 1.46933,0.44356 2.96275,0.90964 3.31872,1.03576 1.46646,0.51956 4.60244,1.46833 5.57038,1.68527 0.57007,0.12776 1.31398,0.36731 1.65313,0.53235 0.33915,0.16502 0.73537,0.30005 0.8805,0.30005 0.42766,0 3.17471,0.93244 3.87776,1.31625 0.84652,0.46211 2.41937,1.97474 2.96698,2.85334 0.4196,0.67321 0.43312,0.7697 0.43312,3.08858 0,2.86618 -0.15465,3.28611 -1.74757,4.74504 -1.98697,1.81983 -4.13044,2.38376 -6.88955,1.81262 z M 39.577614,110.48456 c -0.534304,-0.12352 -2.246503,-0.64935 -3.804881,-1.1685 -1.558385,-0.51916 -3.149034,-1.00686 -3.534771,-1.08381 -0.886999,-0.17691 -2.536246,-0.66143 -3.542465,-1.04071 -1.168963,-0.44062 -1.804136,-0.64643 -2.961179,-0.95946 -0.578824,-0.1566 -2.024313,-0.60248 -3.212199,-0.99084 -1.187879,-0.38837 -2.443328,-0.74937 -2.789883,-0.80223 -0.346562,-0.0528 -0.713263,-0.19166 -0.8149,-0.30847 -0.101636,-0.11681 -0.379876,-0.21238 -0.618314,-0.21238 -0.238437,0 -0.502741,-0.0609 -0.587336,-0.13531 -0.08461,-0.0744 -0.66383,-0.28563 -1.287185,-0.46934 -0.62335,-0.18372 -1.861965,-0.54917 -2.75247,-0.81212 -0.8905,-0.26296 -1.848687,-0.57295 -2.129294,-0.68888 -0.280612,-0.11593 -0.598282,-0.21078 -0.705935,-0.21078 -0.244747,0 -4.2506796,-1.2757 -5.6650379,-1.804055 C 3.3904784,99.132257 2.2028928,98.211621 1.3619796,96.844248 0.420328,95.313075 0.26417834,94.723919 0.35127658,93.030905 0.40928686,91.903082 0.5112258,91.466351 0.8919024,90.714469 c 0.6091834,-1.203193 2.4196535,-2.945491 3.676063,-3.537647 0.9155276,-0.431494 0.9774937,-0.438949 3.0762926,-0.37 1.5205864,0.04996 2.3063274,0.143945 2.708625,0.324007 0.771133,0.345147 4.887018,1.629498 5.859329,1.828384 0.432685,0.08851 1.398987,0.396411 2.147326,0.684224 0.748344,0.287813 1.67556,0.569158 2.060485,0.625214 0.384924,0.05603 0.772724,0.155915 0.861774,0.221922 0.210821,0.15626 5.092038,1.690971 5.378219,1.690971 0.120486,0 0.380433,0.09757 0.577669,0.216804 0.197229,0.119243 0.686464,0.26491 1.087195,0.323697 0.400725,0.05879 0.889961,0.204459 1.087197,0.323703 0.197228,0.119237 0.509301,0.216804 0.693497,0.216804 0.184194,0 0.694352,0.173728 1.133684,0.386068 0.439326,0.212345 0.901845,0.386073 1.027807,0.386073 0.210007,0 5.209266,1.466801 6.339091,1.859908 0.267149,0.09295 1.25075,0.411539 2.18578,0.707967 4.199843,1.33146 5.176577,1.850616 6.608657,3.512692 1.522111,1.76655 1.84187,4.21378 0.843944,6.45896 -0.435783,0.98045 -0.72044,1.35964 -1.623026,2.16202 -1.393301,1.23859 -1.400014,1.24325 -2.267554,1.57491 -0.991164,0.37893 -3.494341,0.46981 -4.776343,0.17341 z m 181.199206,-0.0958 c -1.13876,-0.15861 -2.24438,-0.809 -3.42274,-2.01343 -0.87803,-0.89748 -1.2154,-1.46673 -1.61129,-2.71883 -0.42185,-1.33423 -0.48108,-2.13432 -0.21154,-2.85787 0.13448,-0.361 0.32742,-0.9452 0.42875,-1.29823 0.38556,-1.34334 2.80407,-3.741043 4.04359,-4.008789 0.67819,-0.146495 4.60286,-1.449274 4.79077,-1.590271 0.0935,-0.07018 0.46148,-0.175322 0.81768,-0.233643 0.79217,-0.129703 7.00567,-1.999113 8.01453,-2.411282 0.40073,-0.163713 1.0929,-0.376969 1.53815,-0.473898 0.44526,-0.09693 0.95556,-0.26219 1.13401,-0.367251 0.17847,-0.105054 0.57919,-0.230292 0.89051,-0.27831 0.78671,-0.121334 2.7036,-0.774179 2.94267,-1.002196 0.10876,-0.103729 0.41316,-0.188594 0.67645,-0.188594 0.2633,0 1.90628,-0.448036 3.65108,-0.995629 4.85961,-1.525174 5.2127,-1.633158 6.16768,-1.886237 0.48978,-0.129796 0.95972,-0.298902 1.04432,-0.375784 0.0846,-0.07689 0.26674,-0.14022 0.40477,-0.140746 0.13803,-4.6e-4 0.43844,-0.09426 0.66756,-0.208311 0.22916,-0.114055 0.9396,-0.329603 1.57876,-0.479 1.54413,-0.360929 4.52634,-0.286791 5.37154,0.133538 1.93059,0.9601 3.57282,2.747593 3.89965,4.244598 0.29957,1.372188 0.11203,3.994952 -0.35086,4.906993 -0.4141,0.815911 -2.25043,2.661717 -3.03112,3.046775 -0.70108,0.3458 -6.16837,2.117767 -8.85602,2.870267 -0.26716,0.0748 -1.03218,0.30963 -1.70006,0.52187 -0.66789,0.21222 -3.29083,1.02974 -5.82877,1.81668 -2.53792,0.78694 -4.76013,1.51361 -4.93824,1.61481 -0.1781,0.1012 -0.61526,0.23061 -0.97146,0.28757 -0.35621,0.057 -1.37623,0.33911 -2.26674,0.62699 -1.92403,0.62197 -6.50633,1.9878 -7.50978,2.2384 -0.39024,0.0974 -0.8274,0.2344 -0.97144,0.30432 -0.32643,0.15843 -1.3063,0.50395 -2.36674,0.83454 -0.86777,0.27053 -2.43793,0.30211 -4.02567,0.081 z M 75.205891,65.477807 c -0.05061,-0.07806 -0.471589,-0.219582 -0.93557,-0.314493 -1.03274,-0.211247 -2.128123,-0.863362 -3.070147,-1.827753 -0.834581,-0.854392 -3.078092,-3.613833 -3.774275,-4.642226 -0.267272,-0.394811 -1.221744,-1.655992 -2.121061,-2.802627 -0.899312,-1.146636 -1.919181,-2.501751 -2.266379,-3.011364 -0.347199,-0.509619 -1.114385,-1.52295 -1.704862,-2.251853 -0.590475,-0.72891 -1.173418,-1.49501 -1.295421,-1.702452 -0.122004,-0.207441 -1.391907,-1.869591 -2.822012,-3.693667 -1.430097,-1.824071 -2.846238,-3.663959 -3.146964,-4.088643 -0.300734,-0.424677 -0.861065,-1.143354 -1.245176,-1.597052 -0.384116,-0.453697 -0.698392,-0.89623 -0.698392,-0.9834 0,-0.08718 -0.200369,-0.377185 -0.445255,-0.644471 -1.097863,-1.198272 -2.83714,-3.70691 -3.279605,-4.730327 -0.395345,-0.914422 -0.484071,-1.338242 -0.480839,-2.296913 0.0055,-1.629925 0.207564,-2.317976 1.048134,-3.568762 0.832708,-1.239088 2.354604,-2.419313 3.805202,-2.950936 0.763478,-0.279806 1.111564,-0.314091 2.440245,-0.240379 2.158805,0.119775 3.125951,0.49257 4.401993,1.696802 1.092941,1.031442 3.669602,4.213057 5.712322,7.053487 0.702449,0.976758 2.124237,2.853073 3.159534,4.169586 1.035285,1.316506 2.09435,2.698343 2.353466,3.070741 0.666534,0.957934 0.76989,1.094338 2.588787,3.416552 0.897567,1.145935 2.156132,2.778446 2.796818,3.627806 0.640685,0.849362 1.43265,1.891759 1.759917,2.316437 5.120786,6.645019 5.127831,6.657258 5.197354,9.026581 l 0.05233,1.783457 -0.66681,1.268826 c -1.054837,2.007168 -2.408375,3.046052 -4.964521,3.810401 -0.909121,0.27185 -2.253058,0.331595 -2.398816,0.106642 z M 185.55088,64.976528 c -1.43363,-0.392715 -3.56723,-2.41347 -4.26168,-4.036286 -0.36849,-0.861098 -0.44523,-1.272947 -0.44512,-2.388692 1.2e-4,-1.168768 0.063,-1.474926 0.47246,-2.300473 0.58133,-1.172036 1.94829,-3.123067 4.12994,-5.894549 0.91357,-1.160532 2.14123,-2.782875 2.72817,-3.605207 0.58694,-0.82233 1.49093,-2.017347 2.00886,-2.655588 0.51796,-0.638236 1.26959,-1.621322 1.67031,-2.184621 0.40073,-0.563298 0.85611,-1.138429 1.01194,-1.278065 0.15585,-0.139638 0.28335,-0.37743 0.28335,-0.528426 0,-0.150994 0.0598,-0.274534 0.13283,-0.274534 0.12987,0 1.50056,-1.698955 3.23938,-4.015158 0.47823,-0.637022 1.03755,-1.33195 1.24295,-1.544289 0.2054,-0.212344 0.5291,-0.653971 0.71935,-0.981398 0.48276,-0.830877 4.24342,-5.69466 5.27662,-6.824404 0.46966,-0.513535 1.31615,-1.243215 1.88112,-1.621508 l 1.02722,-0.687796 h 2.34769 c 2.28394,0 2.37055,0.01208 3.18886,0.444622 1.48917,0.787142 2.5594,1.833923 3.28109,3.209216 0.64847,1.235744 0.65404,1.261198 0.64854,2.965885 l -0.005,1.719448 -0.68257,1.204407 c -0.6396,1.128576 -3.65208,5.207424 -7.56374,10.241172 -0.93504,1.203251 -2.21007,2.861542 -2.83343,3.685088 -0.62334,0.823551 -1.3637,1.768476 -1.6452,2.099842 -0.28152,0.331361 -0.68001,0.863882 -0.88554,1.183371 -0.41842,0.650441 -2.68941,3.648819 -4.52095,5.969013 -0.66313,0.84007 -1.28665,1.659215 -1.38557,1.82033 -0.099,0.161116 -0.32662,0.446694 -0.50598,0.634618 -0.17935,0.187921 -0.41439,0.504749 -0.52233,0.704065 -0.37941,0.700754 -2.28382,2.938582 -3.0866,3.627001 -0.44643,0.382834 -1.18887,0.875335 -1.64987,1.09445 -0.76846,0.365243 -1.00056,0.397233 -2.7898,0.384462 -1.0734,-0.0077 -2.20141,-0.08235 -2.50674,-0.165996 z M 131.13761,48.033047 c -1.97569,-0.233158 -4.24174,-1.74733 -5.30077,-3.541984 L 125.2279,43.459165 125.182,24.265147 125.1361,5.0711276 125.71889,4.0133034 c 1.0841,-1.9677173 2.71009,-3.22466023 4.72438,-3.65209271 1.69971,-0.36067814688 3.24064,-0.24671105 4.49921,0.33276721 1.1953,0.550359 2.70569,1.9606843 3.49675,3.2651027 l 0.58239,0.9603281 0.11149,17.1078763 c 0.12781,19.613857 0.0958,20.513069 -0.79119,22.231461 -0.31467,0.609636 -0.8808,1.411352 -1.25805,1.781585 -0.7501,0.736129 -2.32203,1.665634 -2.81685,1.665634 -0.17171,0 -0.38143,0.06521 -0.46601,0.144907 -0.22137,0.208539 -1.62596,0.304611 -2.66342,0.182175 z"
       id="path3637" /><circle
       style="fill:url(#radialGradient12605);fill-opacity:1;stroke-width:0.294098"
       id="path6202"
       cx="132.55627"
       cy="132.82082"
       r="73.818748" /></g></svg>
